<svg width="800" height="145" viewBox="0 0 800 145" fill="none" xmlns="http://www.w3.org/2000/svg">
<path d="M-407.816 9.82668C-371.317 -1.30551 -334.817 -1.30551 -298.317 9.82668C-261.818 20.9589 -225.318 20.9589 -188.819 9.82668C-152.319 -1.30551 -115.82 -1.30551 -79.3201 9.82668C-42.8206 20.9589 -6.321 20.9589 30.1786 9.82668C66.6781 -1.30551 103.178 -1.30551 139.677 9.82668C176.177 20.9589 212.676 20.9589 249.176 9.82668C285.675 -1.30551 322.175 -1.30551 358.675 9.82668C395.174 20.9589 431.674 20.9589 468.173 9.82668C504.673 -1.30551 541.172 -1.30551 577.672 9.82668C614.172 20.9589 650.671 20.9589 687.171 9.82668C723.67 -1.30551 760.17 -1.30551 796.669 9.82668C833.169 20.9589 869.668 20.9589 906.168 9.82668C942.668 -1.30551 979.167 -1.30551 1015.67 9.82668C1052.17 20.9589 1088.67 20.9589 1125.17 9.82668C1161.66 -1.30551 1198.16 -1.30551 1234.66 9.82668C1271.16 20.9589 1307.66 20.9589 1344.16 9.82668C1380.66 -1.30551 1417.16 -1.30551 1453.66 9.82668C1490.16 20.9589 1526.66 20.9589 1563.16 9.82668C1599.66 -1.30551 1636.16 -1.30551 1672.66 9.82668C1709.16 20.9589 1745.66 20.9589 1782.16 9.82668" stroke="#F2F7FF" stroke-opacity="0.1"/>
<path d="M-407.816 19.4605C-371.317 8.32828 -334.817 8.32828 -298.317 19.4605C-261.818 30.5927 -225.318 30.5927 -188.819 19.4605C-152.319 8.32828 -115.82 8.32828 -79.3201 19.4605C-42.8206 30.5927 -6.321 30.5927 30.1786 19.4605C66.6781 8.32828 103.178 8.32828 139.677 19.4605C176.177 30.5927 212.676 30.5927 249.176 19.4605C285.675 8.32828 322.175 8.32828 358.675 19.4605C395.174 30.5927 431.674 30.5927 468.173 19.4605C504.673 8.32828 541.172 8.32828 577.672 19.4605C614.172 30.5927 650.671 30.5927 687.171 19.4605C723.67 8.32828 760.17 8.32828 796.669 19.4605C833.169 30.5927 869.668 30.5927 906.168 19.4605C942.668 8.32828 979.167 8.32828 1015.67 19.4605C1052.17 30.5927 1088.67 30.5927 1125.17 19.4605C1161.66 8.32828 1198.16 8.32828 1234.66 19.4605C1271.16 30.5927 1307.66 30.5927 1344.16 19.4605C1380.66 8.32828 1417.16 8.32828 1453.66 19.4605C1490.16 30.5927 1526.66 30.5927 1563.16 19.4605C1599.66 8.32828 1636.16 8.32828 1672.66 19.4605C1709.16 30.5927 1745.66 30.5927 1782.16 19.4605" stroke="#F2F7FF" stroke-opacity="0.1"/>
<path d="M-407.816 29.0933C-371.317 17.9611 -334.817 17.9611 -298.317 29.0933C-261.818 40.2255 -225.318 40.2255 -188.819 29.0933C-152.319 17.9611 -115.82 17.9611 -79.3202 29.0933C-42.8206 40.2255 -6.32105 40.2255 30.1785 29.0933C66.6781 17.9611 103.178 17.9611 139.677 29.0933C176.177 40.2255 212.676 40.2255 249.176 29.0933C285.675 17.9611 322.175 17.9611 358.675 29.0933C395.174 40.2255 431.674 40.2255 468.173 29.0933C504.673 17.9611 541.172 17.9611 577.672 29.0933C614.171 40.2255 650.671 40.2255 687.171 29.0933C723.67 17.9611 760.17 17.9611 796.669 29.0933C833.169 40.2255 869.668 40.2255 906.168 29.0933C942.667 17.9611 979.167 17.9611 1015.67 29.0933C1052.17 40.2255 1088.67 40.2255 1125.17 29.0933C1161.66 17.9611 1198.16 17.9611 1234.66 29.0933C1271.16 40.2255 1307.66 40.2255 1344.16 29.0933C1380.66 17.9611 1417.16 17.9611 1453.66 29.0933C1490.16 40.2255 1526.66 40.2255 1563.16 29.0933C1599.66 17.9611 1636.16 17.9611 1672.66 29.0933C1709.16 40.2255 1745.66 40.2255 1782.16 29.0933" stroke="#F2F7FF" stroke-opacity="0.1"/>
<path d="M-407.816 38.7271C-371.317 27.5949 -334.817 27.5949 -298.317 38.7271C-261.818 49.8593 -225.318 49.8593 -188.819 38.7271C-152.319 27.5949 -115.82 27.5949 -79.3201 38.7271C-42.8206 49.8593 -6.321 49.8593 30.1786 38.7271C66.6781 27.5949 103.178 27.5949 139.677 38.7271C176.177 49.8593 212.676 49.8593 249.176 38.7271C285.675 27.5949 322.175 27.5949 358.675 38.7271C395.174 49.8593 431.674 49.8593 468.173 38.7271C504.673 27.5949 541.172 27.5949 577.672 38.7271C614.172 49.8593 650.671 49.8593 687.171 38.7271C723.67 27.5949 760.17 27.5949 796.669 38.7271C833.169 49.8593 869.668 49.8593 906.168 38.7271C942.668 27.5949 979.167 27.5949 1015.67 38.7271C1052.17 49.8593 1088.67 49.8593 1125.17 38.7271C1161.66 27.5949 1198.16 27.5949 1234.66 38.7271C1271.16 49.8593 1307.66 49.8593 1344.16 38.7271C1380.66 27.5949 1417.16 27.5949 1453.66 38.7271C1490.16 49.8593 1526.66 49.8593 1563.16 38.7271C1599.66 27.5949 1636.16 27.5949 1672.66 38.7271C1709.16 49.8593 1745.66 49.8593 1782.16 38.7271" stroke="#F2F7FF" stroke-opacity="0.1"/>
<path d="M-407.816 48.3609C-371.317 37.2287 -334.817 37.2287 -298.317 48.3609C-261.818 59.4931 -225.318 59.4931 -188.819 48.3609C-152.319 37.2287 -115.82 37.2287 -79.3201 48.3609C-42.8206 59.4931 -6.321 59.4931 30.1786 48.3609C66.6781 37.2287 103.178 37.2287 139.677 48.3609C176.177 59.4931 212.676 59.4931 249.176 48.3609C285.675 37.2287 322.175 37.2287 358.675 48.3609C395.174 59.4931 431.674 59.4931 468.173 48.3609C504.673 37.2287 541.172 37.2287 577.672 48.3609C614.172 59.4931 650.671 59.4931 687.171 48.3609C723.67 37.2287 760.17 37.2287 796.669 48.3609C833.169 59.4931 869.668 59.4931 906.168 48.3609C942.668 37.2287 979.167 37.2287 1015.67 48.3609C1052.17 59.4931 1088.67 59.4931 1125.17 48.3609C1161.66 37.2287 1198.16 37.2287 1234.66 48.3609C1271.16 59.4931 1307.66 59.4931 1344.16 48.3609C1380.66 37.2287 1417.16 37.2287 1453.66 48.3609C1490.16 59.4931 1526.66 59.4931 1563.16 48.3609C1599.66 37.2287 1636.16 37.2287 1672.66 48.3609C1709.16 59.4931 1745.66 59.4931 1782.16 48.3609" stroke="#F2F7FF" stroke-opacity="0.1"/>
<path d="M-407.816 57.9937C-371.317 46.8615 -334.817 46.8615 -298.317 57.9937C-261.818 69.1259 -225.318 69.1259 -188.819 57.9937C-152.319 46.8615 -115.82 46.8615 -79.3201 57.9937C-42.8206 69.1259 -6.321 69.1259 30.1786 57.9937C66.6781 46.8615 103.178 46.8615 139.677 57.9937C176.177 69.1259 212.676 69.1259 249.176 57.9937C285.675 46.8615 322.175 46.8615 358.675 57.9937C395.174 69.1259 431.674 69.1259 468.173 57.9937C504.673 46.8615 541.172 46.8615 577.672 57.9937C614.172 69.1259 650.671 69.1259 687.171 57.9937C723.67 46.8615 760.17 46.8615 796.669 57.9937C833.169 69.1259 869.668 69.1259 906.168 57.9937C942.668 46.8615 979.167 46.8615 1015.67 57.9937C1052.17 69.1259 1088.67 69.1259 1125.17 57.9937C1161.66 46.8615 1198.16 46.8615 1234.66 57.9937C1271.16 69.1259 1307.66 69.1259 1344.16 57.9937C1380.66 46.8615 1417.16 46.8615 1453.66 57.9937C1490.16 69.1259 1526.66 69.1259 1563.16 57.9937C1599.66 46.8615 1636.16 46.8615 1672.66 57.9937C1709.16 69.1259 1745.66 69.1259 1782.16 57.9937" stroke="#F2F7FF" stroke-opacity="0.1"/>
<path d="M-407.816 67.6275C-371.317 56.4953 -334.817 56.4953 -298.317 67.6275C-261.818 78.7597 -225.318 78.7597 -188.819 67.6275C-152.319 56.4953 -115.82 56.4953 -79.3201 67.6275C-42.8206 78.7597 -6.321 78.7597 30.1786 67.6275C66.6781 56.4953 103.178 56.4953 139.677 67.6275C176.177 78.7597 212.676 78.7597 249.176 67.6275C285.675 56.4953 322.175 56.4953 358.675 67.6275C395.174 78.7597 431.674 78.7597 468.173 67.6275C504.673 56.4953 541.172 56.4953 577.672 67.6275C614.172 78.7597 650.671 78.7597 687.171 67.6275C723.67 56.4953 760.17 56.4953 796.669 67.6275C833.169 78.7597 869.668 78.7597 906.168 67.6275C942.668 56.4953 979.167 56.4953 1015.67 67.6275C1052.17 78.7597 1088.67 78.7597 1125.17 67.6275C1161.66 56.4953 1198.16 56.4953 1234.66 67.6275C1271.16 78.7597 1307.66 78.7597 1344.16 67.6275C1380.66 56.4953 1417.16 56.4953 1453.66 67.6275C1490.16 78.7597 1526.66 78.7597 1563.16 67.6275C1599.66 56.4953 1636.16 56.4953 1672.66 67.6275C1709.16 78.7597 1745.66 78.7597 1782.16 67.6275" stroke="#F2F7FF" stroke-opacity="0.1"/>
<path d="M-407.816 77.2603C-371.317 66.1281 -334.817 66.1281 -298.317 77.2603C-261.818 88.3925 -225.318 88.3925 -188.819 77.2603C-152.319 66.1281 -115.82 66.1281 -79.3201 77.2603C-42.8206 88.3925 -6.321 88.3925 30.1786 77.2603C66.6781 66.1281 103.178 66.1281 139.677 77.2603C176.177 88.3925 212.676 88.3925 249.176 77.2603C285.675 66.1281 322.175 66.1281 358.675 77.2603C395.174 88.3925 431.674 88.3925 468.173 77.2603C504.673 66.1281 541.172 66.1281 577.672 77.2603C614.172 88.3925 650.671 88.3925 687.171 77.2603C723.67 66.1281 760.17 66.1281 796.669 77.2603C833.169 88.3925 869.668 88.3925 906.168 77.2603C942.668 66.1281 979.167 66.1281 1015.67 77.2603C1052.17 88.3925 1088.67 88.3925 1125.17 77.2603C1161.66 66.1281 1198.16 66.1281 1234.66 77.2603C1271.16 88.3925 1307.66 88.3925 1344.16 77.2603C1380.66 66.1281 1417.16 66.1281 1453.66 77.2603C1490.16 88.3925 1526.66 88.3925 1563.16 77.2603C1599.66 66.1281 1636.16 66.1281 1672.66 77.2603C1709.16 88.3925 1745.66 88.3925 1782.16 77.2603" stroke="#F2F7FF" stroke-opacity="0.1" stroke-width="2"/>
<path d="M-407.816 86.8941C-371.317 75.7619 -334.817 75.7619 -298.317 86.8941C-261.818 98.0263 -225.318 98.0263 -188.819 86.8941C-152.319 75.7619 -115.82 75.7619 -79.3201 86.8941C-42.8206 98.0263 -6.321 98.0263 30.1786 86.8941C66.6781 75.7619 103.178 75.7619 139.677 86.8941C176.177 98.0263 212.676 98.0263 249.176 86.8941C285.675 75.7619 322.175 75.7619 358.675 86.8941C395.174 98.0263 431.674 98.0263 468.173 86.8941C504.673 75.7619 541.172 75.7619 577.672 86.8941C614.172 98.0263 650.671 98.0263 687.171 86.8941C723.67 75.7619 760.17 75.7619 796.669 86.8941C833.169 98.0263 869.668 98.0263 906.168 86.8941C942.668 75.7619 979.167 75.7619 1015.67 86.8941C1052.17 98.0263 1088.67 98.0263 1125.17 86.8941C1161.66 75.7619 1198.16 75.7619 1234.66 86.8941C1271.16 98.0263 1307.66 98.0263 1344.16 86.8941C1380.66 75.7619 1417.16 75.7619 1453.66 86.8941C1490.16 98.0263 1526.66 98.0263 1563.16 86.8941C1599.66 75.7619 1636.16 75.7619 1672.66 86.8941C1709.16 98.0263 1745.66 98.0263 1782.16 86.8941" stroke="#F2F7FF" stroke-opacity="0.1" stroke-width="2"/>
<path d="M-407.816 96.5279C-371.317 85.3957 -334.817 85.3957 -298.317 96.5279C-261.818 107.66 -225.318 107.66 -188.819 96.5279C-152.319 85.3957 -115.82 85.3957 -79.3201 96.5279C-42.8206 107.66 -6.321 107.66 30.1786 96.5279C66.6781 85.3957 103.178 85.3957 139.677 96.5279C176.177 107.66 212.676 107.66 249.176 96.5279C285.675 85.3957 322.175 85.3957 358.675 96.5279C395.174 107.66 431.674 107.66 468.173 96.5279C504.673 85.3957 541.172 85.3957 577.672 96.5279C614.172 107.66 650.671 107.66 687.171 96.5279C723.67 85.3957 760.17 85.3957 796.669 96.5279C833.169 107.66 869.668 107.66 906.168 96.5279C942.668 85.3957 979.167 85.3957 1015.67 96.5279C1052.17 107.66 1088.67 107.66 1125.17 96.5279C1161.66 85.3957 1198.16 85.3957 1234.66 96.5279C1271.16 107.66 1307.66 107.66 1344.16 96.5279C1380.66 85.3957 1417.16 85.3957 1453.66 96.5279C1490.16 107.66 1526.66 107.66 1563.16 96.5279C1599.66 85.3957 1636.16 85.3957 1672.66 96.5279C1709.16 107.66 1745.66 107.66 1782.16 96.5279" stroke="#F2F7FF" stroke-opacity="0.1" stroke-width="2"/>
<path d="M-407.816 106.161C-371.317 95.0285 -334.817 95.0285 -298.317 106.161C-261.818 117.293 -225.318 117.293 -188.819 106.161C-152.319 95.0285 -115.82 95.0285 -79.3202 106.161C-42.8206 117.293 -6.32105 117.293 30.1785 106.161C66.6781 95.0285 103.178 95.0285 139.677 106.161C176.177 117.293 212.676 117.293 249.176 106.161C285.675 95.0285 322.175 95.0285 358.675 106.161C395.174 117.293 431.674 117.293 468.173 106.161C504.673 95.0285 541.172 95.0285 577.672 106.161C614.171 117.293 650.671 117.293 687.171 106.161C723.67 95.0285 760.17 95.0285 796.669 106.161C833.169 117.293 869.668 117.293 906.168 106.161C942.667 95.0285 979.167 95.0285 1015.67 106.161C1052.17 117.293 1088.67 117.293 1125.17 106.161C1161.66 95.0285 1198.16 95.0285 1234.66 106.161C1271.16 117.293 1307.66 117.293 1344.16 106.161C1380.66 95.0285 1417.16 95.0285 1453.66 106.161C1490.16 117.293 1526.66 117.293 1563.16 106.161C1599.66 95.0285 1636.16 95.0285 1672.66 106.161C1709.16 117.293 1745.66 117.293 1782.16 106.161" stroke="#F2F7FF" stroke-opacity="0.1" stroke-width="2"/>
<path d="M-407.816 115.794C-371.317 104.662 -334.817 104.662 -298.317 115.794C-261.818 126.927 -225.318 126.927 -188.819 115.794C-152.319 104.662 -115.82 104.662 -79.3201 115.794C-42.8206 126.927 -6.321 126.927 30.1786 115.794C66.6781 104.662 103.178 104.662 139.677 115.794C176.177 126.927 212.676 126.927 249.176 115.794C285.675 104.662 322.175 104.662 358.675 115.794C395.174 126.927 431.674 126.927 468.173 115.794C504.673 104.662 541.172 104.662 577.672 115.794C614.172 126.927 650.671 126.927 687.171 115.794C723.67 104.662 760.17 104.662 796.669 115.794C833.169 126.927 869.668 126.927 906.168 115.794C942.668 104.662 979.167 104.662 1015.67 115.794C1052.17 126.927 1088.67 126.927 1125.17 115.794C1161.66 104.662 1198.16 104.662 1234.66 115.794C1271.16 126.927 1307.66 126.927 1344.16 115.794C1380.66 104.662 1417.16 104.662 1453.66 115.794C1490.16 126.927 1526.66 126.927 1563.16 115.794C1599.66 104.662 1636.16 104.662 1672.66 115.794C1709.16 126.927 1745.66 126.927 1782.16 115.794" stroke="#F2F7FF" stroke-opacity="0.1" stroke-width="2"/>
<path d="M-407.816 125.427C-371.317 114.295 -334.817 114.295 -298.317 125.427C-261.818 136.559 -225.318 136.559 -188.819 125.427C-152.319 114.295 -115.82 114.295 -79.3201 125.427C-42.8206 136.559 -6.321 136.559 30.1786 125.427C66.6781 114.295 103.178 114.295 139.677 125.427C176.177 136.559 212.676 136.559 249.176 125.427C285.675 114.295 322.175 114.295 358.675 125.427C395.174 136.559 431.674 136.559 468.173 125.427C504.673 114.295 541.172 114.295 577.672 125.427C614.172 136.559 650.671 136.559 687.171 125.427C723.67 114.295 760.17 114.295 796.669 125.427C833.169 136.559 869.668 136.559 906.168 125.427C942.668 114.295 979.167 114.295 1015.67 125.427C1052.17 136.559 1088.67 136.559 1125.17 125.427C1161.66 114.295 1198.16 114.295 1234.66 125.427C1271.16 136.559 1307.66 136.559 1344.16 125.427C1380.66 114.295 1417.16 114.295 1453.66 125.427C1490.16 136.559 1526.66 136.559 1563.16 125.427C1599.66 114.295 1636.16 114.295 1672.66 125.427C1709.16 136.559 1745.66 136.559 1782.16 125.427" stroke="#F2F7FF" stroke-opacity="0.1" stroke-width="2"/>
<path d="M-407.816 135.061C-371.317 123.929 -334.817 123.929 -298.317 135.061C-261.818 146.193 -225.318 146.193 -188.819 135.061C-152.319 123.929 -115.82 123.929 -79.3202 135.061C-42.8206 146.193 -6.32105 146.193 30.1785 135.061C66.6781 123.929 103.178 123.929 139.677 135.061C176.177 146.193 212.676 146.193 249.176 135.061C285.675 123.929 322.175 123.929 358.675 135.061C395.174 146.193 431.674 146.193 468.173 135.061C504.673 123.929 541.172 123.929 577.672 135.061C614.171 146.193 650.671 146.193 687.171 135.061C723.67 123.929 760.17 123.929 796.669 135.061C833.169 146.193 869.668 146.193 906.168 135.061C942.667 123.929 979.167 123.929 1015.67 135.061C1052.17 146.193 1088.67 146.193 1125.17 135.061C1161.66 123.929 1198.16 123.929 1234.66 135.061C1271.16 146.193 1307.66 146.193 1344.16 135.061C1380.66 123.929 1417.16 123.929 1453.66 135.061C1490.16 146.193 1526.66 146.193 1563.16 135.061C1599.66 123.929 1636.16 123.929 1672.66 135.061C1709.16 146.193 1745.66 146.193 1782.16 135.061" stroke="#F2F7FF" stroke-opacity="0.1" stroke-width="2"/>
<path d="M-407.816 144.695C-371.317 133.563 -334.817 133.563 -298.317 144.695C-261.818 155.827 -225.318 155.827 -188.819 144.695C-152.319 133.563 -115.82 133.563 -79.3201 144.695C-42.8206 155.827 -6.321 155.827 30.1786 144.695C66.6781 133.563 103.178 133.563 139.677 144.695C176.177 155.827 212.676 155.827 249.176 144.695C285.675 133.563 322.175 133.563 358.675 144.695C395.174 155.827 431.674 155.827 468.173 144.695C504.673 133.563 541.172 133.563 577.672 144.695C614.172 155.827 650.671 155.827 687.171 144.695C723.67 133.563 760.17 133.563 796.669 144.695C833.169 155.827 869.668 155.827 906.168 144.695C942.668 133.563 979.167 133.563 1015.67 144.695C1052.17 155.827 1088.67 155.827 1125.17 144.695C1161.66 133.563 1198.16 133.563 1234.66 144.695C1271.16 155.827 1307.66 155.827 1344.16 144.695C1380.66 133.563 1417.16 133.563 1453.66 144.695C1490.16 155.827 1526.66 155.827 1563.16 144.695C1599.66 133.563 1636.16 133.563 1672.66 144.695C1709.16 155.827 1745.66 155.827 1782.16 144.695" stroke="#F2F7FF" stroke-opacity="0.1" stroke-width="2"/>
</svg>
