<svg width="32" height="32" viewBox="0 0 32 32" xmlns="http://www.w3.org/2000/svg">
              <path d="M15.9875 2.3844C8.25937 2.38128 2 8.63753 2 16.3594C2 22.4657 5.91562 27.6563 11.3687 29.5626C12.1031 29.7469 11.9906 29.2251 11.9906 28.8688V26.4469C7.75 26.9438 7.57812 24.1376 7.29375 23.6688C6.71875 22.6876 5.35937 22.4376 5.76562 21.9688C6.73125 21.4719 7.71562 22.0938 8.85625 23.7782C9.68125 25.0001 11.2906 24.7938 12.1062 24.5907C12.2844 23.8563 12.6656 23.2001 13.1906 22.6907C8.79687 21.9032 6.96562 19.2219 6.96562 16.0344C6.96562 14.4875 7.475 13.0657 8.475 11.9188C7.8375 10.0282 8.53437 8.40941 8.62812 8.16878C10.4437 8.00628 12.3312 9.46879 12.4781 9.58441C13.5094 9.30629 14.6875 9.15941 16.0062 9.15941C17.3312 9.15941 18.5125 9.31254 19.5531 9.59379C19.9062 9.32504 21.6562 8.06878 23.3437 8.22191C23.4344 8.46253 24.1156 10.0438 23.5156 11.9094C24.5281 13.0594 25.0437 14.4938 25.0437 16.0438C25.0437 19.2376 23.2 21.9219 18.7937 22.6969C19.1712 23.0681 19.4708 23.5107 19.6752 23.999C19.8797 24.4872 19.9848 25.0114 19.9844 25.5407V29.0563C20.0094 29.3376 19.9844 29.6157 20.4531 29.6157C25.9875 27.7501 29.9719 22.5219 29.9719 16.3625C29.9719 8.63753 23.7094 2.3844 15.9875 2.3844Z" />
            </svg>